<?xml version="1.0" encoding="UTF-8"?>
<svg xmlns="http://www.w3.org/2000/svg" version="1.1" width="500" height="500" viewBox="0 0 500 500"><rect x="0" y="0" width="500" height="500" fill="#ffffff"/><g transform="scale(17.241)"><g transform="translate(0,0)"><path fill-rule="evenodd" d="M9 0L9 1L8 1L8 2L9 2L9 3L8 3L8 4L10 4L10 7L11 7L11 4L12 4L12 5L13 5L13 6L12 6L12 9L13 9L13 8L14 8L14 9L16 9L16 10L15 10L15 11L14 11L14 12L15 12L15 13L12 13L12 11L13 11L13 10L11 10L11 11L10 11L10 9L11 9L11 8L6 8L6 9L5 9L5 8L0 8L0 9L1 9L1 10L0 10L0 15L1 15L1 10L2 10L2 11L3 11L3 12L2 12L2 16L1 16L1 17L0 17L0 21L1 21L1 18L2 18L2 16L3 16L3 12L4 12L4 13L5 13L5 15L4 15L4 16L6 16L6 17L7 17L7 18L6 18L6 19L4 19L4 18L5 18L5 17L4 17L4 18L3 18L3 19L4 19L4 21L5 21L5 20L6 20L6 21L8 21L8 23L9 23L9 22L11 22L11 21L12 21L12 22L13 22L13 23L12 23L12 25L13 25L13 24L14 24L14 25L16 25L16 26L15 26L15 27L14 27L14 28L15 28L15 29L18 29L18 28L15 28L15 27L19 27L19 29L20 29L20 28L21 28L21 27L22 27L22 29L23 29L23 28L26 28L26 29L27 29L27 28L28 28L28 26L29 26L29 25L28 25L28 24L29 24L29 23L28 23L28 24L26 24L26 23L25 23L25 22L26 22L26 21L27 21L27 20L26 20L26 18L27 18L27 16L26 16L26 15L27 15L27 14L26 14L26 13L27 13L27 12L25 12L25 13L24 13L24 15L23 15L23 13L21 13L21 12L20 12L20 13L18 13L18 12L17 12L17 11L16 11L16 10L18 10L18 11L19 11L19 10L21 10L21 11L22 11L22 12L24 12L24 11L22 11L22 10L26 10L26 11L28 11L28 12L29 12L29 11L28 11L28 10L29 10L29 9L28 9L28 8L27 8L27 9L26 9L26 8L25 8L25 9L24 9L24 8L23 8L23 9L22 9L22 8L21 8L21 3L20 3L20 2L18 2L18 3L17 3L17 2L16 2L16 3L17 3L17 6L16 6L16 4L12 4L12 2L13 2L13 1L11 1L11 2L10 2L10 0ZM15 0L15 1L17 1L17 0ZM19 0L19 1L21 1L21 0ZM14 2L14 3L15 3L15 2ZM10 3L10 4L11 4L11 3ZM19 3L19 4L20 4L20 3ZM8 5L8 7L9 7L9 5ZM18 5L18 6L17 6L17 8L16 8L16 6L15 6L15 7L14 7L14 6L13 6L13 7L14 7L14 8L16 8L16 9L17 9L17 8L18 8L18 9L19 9L19 7L20 7L20 5ZM18 6L18 7L19 7L19 6ZM20 8L20 9L21 9L21 8ZM3 9L3 10L4 10L4 11L5 11L5 13L6 13L6 14L7 14L7 15L6 15L6 16L7 16L7 17L8 17L8 16L9 16L9 15L10 15L10 16L11 16L11 18L10 18L10 19L9 19L9 18L8 18L8 19L9 19L9 21L11 21L11 18L13 18L13 19L12 19L12 21L15 21L15 22L17 22L17 24L16 24L16 25L17 25L17 26L19 26L19 27L21 27L21 26L20 26L20 24L19 24L19 23L18 23L18 22L17 22L17 20L18 20L18 21L19 21L19 22L20 22L20 20L23 20L23 19L24 19L24 20L25 20L25 18L26 18L26 16L22 16L22 14L18 14L18 13L17 13L17 12L16 12L16 13L15 13L15 14L16 14L16 16L18 16L18 17L17 17L17 18L16 18L16 17L14 17L14 16L15 16L15 15L14 15L14 16L13 16L13 17L12 17L12 15L13 15L13 14L12 14L12 13L11 13L11 12L10 12L10 13L11 13L11 14L9 14L9 13L8 13L8 10L9 10L9 9L6 9L6 10L7 10L7 11L5 11L5 9ZM6 12L6 13L7 13L7 14L8 14L8 13L7 13L7 12ZM16 13L16 14L17 14L17 13ZM28 13L28 14L29 14L29 13ZM18 15L18 16L19 16L19 15ZM28 15L28 16L29 16L29 15ZM20 16L20 17L19 17L19 18L17 18L17 19L16 19L16 18L15 18L15 19L14 19L14 20L15 20L15 19L16 19L16 20L17 20L17 19L18 19L18 20L19 20L19 18L20 18L20 19L21 19L21 18L22 18L22 19L23 19L23 18L25 18L25 17L21 17L21 16ZM28 17L28 18L29 18L29 17ZM6 19L6 20L7 20L7 19ZM28 19L28 20L29 20L29 19ZM21 21L21 24L24 24L24 21ZM28 21L28 22L29 22L29 21ZM22 22L22 23L23 23L23 22ZM14 23L14 24L15 24L15 23ZM8 24L8 29L9 29L9 28L11 28L11 29L12 29L12 27L13 27L13 26L11 26L11 25L10 25L10 27L9 27L9 24ZM17 24L17 25L18 25L18 24ZM25 24L25 25L22 25L22 26L25 26L25 25L26 25L26 24ZM26 26L26 28L27 28L27 26ZM0 0L0 7L7 7L7 0ZM1 1L1 6L6 6L6 1ZM2 2L2 5L5 5L5 2ZM22 0L22 7L29 7L29 0ZM23 1L23 6L28 6L28 1ZM24 2L24 5L27 5L27 2ZM0 22L0 29L7 29L7 22ZM1 23L1 28L6 28L6 23ZM2 24L2 27L5 27L5 24Z" fill="#000000"/></g></g></svg>
